<svg width="1600" height="1000" viewBox="0 0 1600 1000" fill="none" xmlns="http://www.w3.org/2000/svg">
  <rect width="1600" height="1000" rx="24" fill="#F9FAFB"/>
  <rect x="32" y="32" width="1536" height="936" rx="16" fill="white" stroke="#E6E8EB"/>
  <rect x="32" y="32" width="1536" height="56" rx="16" fill="#F3F4F6"/>
  <rect x="60" y="50" width="180" height="20" rx="10" fill="#111827"/>
  <rect x="1348" y="50" width="88" height="20" rx="10" fill="#D1D5DB"/>
  <rect x="1450" y="50" width="88" height="20" rx="10" fill="#3F5F7A"/>
  <rect x="64" y="116" width="1472" height="104" rx="12" fill="#FBFCFD" stroke="#E6E8EB"/>
  <rect x="92" y="146" width="220" height="14" rx="7" fill="#111827"/>
  <rect x="92" y="174" width="360" height="10" rx="5" fill="#9CA3AF"/>
  <rect x="1248" y="142" width="120" height="30" rx="8" fill="#D1D5DB"/>
  <rect x="1384" y="142" width="124" height="30" rx="8" fill="#3F5F7A"/>
  <rect x="64" y="248" width="1472" height="680" rx="12" fill="white" stroke="#E6E8EB"/>
  <rect x="88" y="276" width="140" height="12" rx="6" fill="#6B7280"/>
  <rect x="416" y="276" width="112" height="12" rx="6" fill="#6B7280"/>
  <rect x="600" y="276" width="112" height="12" rx="6" fill="#6B7280"/>
  <rect x="784" y="276" width="112" height="12" rx="6" fill="#6B7280"/>
  <rect x="968" y="276" width="112" height="12" rx="6" fill="#6B7280"/>
  <rect x="1152" y="276" width="112" height="12" rx="6" fill="#6B7280"/>
  <rect x="1360" y="276" width="120" height="12" rx="6" fill="#6B7280"/>
  <rect x="88" y="304" width="1424" height="1" fill="#E6E8EB"/>
  <rect x="88" y="324" width="1424" height="58" rx="8" fill="#FBFCFD" stroke="#E6E8EB"/>
  <rect x="108" y="347" width="260" height="12" rx="6" fill="#111827"/>
  <rect x="436" y="347" width="72" height="12" rx="6" fill="#9CA3AF"/>
  <rect x="620" y="347" width="72" height="12" rx="6" fill="#9CA3AF"/>
  <rect x="804" y="347" width="72" height="12" rx="6" fill="#9CA3AF"/>
  <rect x="988" y="347" width="72" height="12" rx="6" fill="#9CA3AF"/>
  <rect x="1172" y="347" width="72" height="12" rx="6" fill="#9CA3AF"/>
  <rect x="1372" y="347" width="108" height="12" rx="6" fill="#111827"/>
  <rect x="88" y="392" width="1424" height="58" rx="8" fill="#FBFCFD" stroke="#E6E8EB"/>
  <rect x="108" y="415" width="240" height="12" rx="6" fill="#111827"/>
  <rect x="436" y="415" width="72" height="12" rx="6" fill="#9CA3AF"/>
  <rect x="620" y="415" width="72" height="12" rx="6" fill="#9CA3AF"/>
  <rect x="804" y="415" width="72" height="12" rx="6" fill="#9CA3AF"/>
  <rect x="988" y="415" width="72" height="12" rx="6" fill="#9CA3AF"/>
  <rect x="1172" y="415" width="72" height="12" rx="6" fill="#9CA3AF"/>
  <rect x="1372" y="415" width="108" height="12" rx="6" fill="#111827"/>
  <rect x="88" y="460" width="1424" height="58" rx="8" fill="#FBFCFD" stroke="#E6E8EB"/>
  <rect x="108" y="483" width="280" height="12" rx="6" fill="#111827"/>
  <rect x="436" y="483" width="72" height="12" rx="6" fill="#9CA3AF"/>
  <rect x="620" y="483" width="72" height="12" rx="6" fill="#9CA3AF"/>
  <rect x="804" y="483" width="72" height="12" rx="6" fill="#9CA3AF"/>
  <rect x="988" y="483" width="72" height="12" rx="6" fill="#9CA3AF"/>
  <rect x="1172" y="483" width="72" height="12" rx="6" fill="#9CA3AF"/>
  <rect x="1372" y="483" width="108" height="12" rx="6" fill="#111827"/>
  <rect x="88" y="554" width="620" height="350" rx="12" fill="#FBFCFD" stroke="#E6E8EB"/>
  <rect x="116" y="584" width="180" height="14" rx="7" fill="#111827"/>
  <rect x="116" y="616" width="260" height="10" rx="5" fill="#9CA3AF"/>
  <rect x="116" y="652" width="560" height="10" rx="5" fill="#E5E7EB"/>
  <rect x="116" y="680" width="560" height="10" rx="5" fill="#E5E7EB"/>
  <rect x="116" y="708" width="560" height="10" rx="5" fill="#E5E7EB"/>
  <rect x="732" y="554" width="780" height="350" rx="12" fill="#FBFCFD" stroke="#E6E8EB"/>
  <rect x="760" y="584" width="200" height="14" rx="7" fill="#111827"/>
  <rect x="760" y="622" width="724" height="1" fill="#E6E8EB"/>
  <rect x="760" y="648" width="220" height="10" rx="5" fill="#9CA3AF"/>
  <rect x="760" y="676" width="680" height="10" rx="5" fill="#E5E7EB"/>
  <rect x="760" y="704" width="680" height="10" rx="5" fill="#E5E7EB"/>
  <rect x="760" y="732" width="680" height="10" rx="5" fill="#E5E7EB"/>
  <rect x="1300" y="840" width="184" height="36" rx="10" fill="#3F5F7A"/>
</svg>
