<svg width="1600" height="1000" viewBox="0 0 1600 1000" fill="none" xmlns="http://www.w3.org/2000/svg">
  <rect width="1600" height="1000" rx="24" fill="#F9FAFB"/>
  <rect x="32" y="32" width="1536" height="936" rx="16" fill="white" stroke="#E6E8EB"/>
  <rect x="64" y="64" width="1472" height="98" rx="12" fill="#FBFCFD" stroke="#E6E8EB"/>
  <rect x="92" y="94" width="240" height="14" rx="7" fill="#111827"/>
  <rect x="92" y="122" width="400" height="10" rx="5" fill="#9CA3AF"/>
  <rect x="1260" y="88" width="120" height="28" rx="14" fill="#DBEAFE"/>
  <rect x="1394" y="88" width="114" height="28" rx="14" fill="#E5E7EB"/>
  <rect x="64" y="188" width="1472" height="752" rx="12" fill="white" stroke="#E6E8EB"/>
  <rect x="88" y="220" width="280" height="14" rx="7" fill="#111827"/>
  <rect x="88" y="252" width="430" height="10" rx="5" fill="#9CA3AF"/>
  <rect x="88" y="286" width="1424" height="1" fill="#E6E8EB"/>
  <rect x="88" y="312" width="1424" height="146" rx="10" fill="#FBFCFD" stroke="#E6E8EB"/>
  <rect x="112" y="340" width="260" height="12" rx="6" fill="#111827"/>
  <rect x="112" y="368" width="420" height="10" rx="5" fill="#9CA3AF"/>
  <rect x="112" y="400" width="200" height="24" rx="12" fill="#FEF3C7"/>
  <rect x="356" y="400" width="220" height="24" rx="12" fill="#DBEAFE"/>
  <rect x="1260" y="336" width="220" height="32" rx="10" fill="#3F5F7A"/>
  <rect x="1260" y="380" width="220" height="32" rx="10" fill="#E5E7EB"/>
  <rect x="88" y="478" width="1424" height="146" rx="10" fill="#FBFCFD" stroke="#E6E8EB"/>
  <rect x="112" y="506" width="300" height="12" rx="6" fill="#111827"/>
  <rect x="112" y="534" width="430" height="10" rx="5" fill="#9CA3AF"/>
  <rect x="112" y="566" width="228" height="24" rx="12" fill="#D1FAE5"/>
  <rect x="1260" y="502" width="220" height="32" rx="10" fill="#E5E7EB"/>
  <rect x="1260" y="546" width="220" height="32" rx="10" fill="#E5E7EB"/>
  <rect x="88" y="644" width="932" height="270" rx="10" fill="#FBFCFD" stroke="#E6E8EB"/>
  <rect x="112" y="672" width="180" height="14" rx="7" fill="#111827"/>
  <rect x="112" y="704" width="876" height="1" fill="#E6E8EB"/>
  <rect x="112" y="730" width="260" height="10" rx="5" fill="#9CA3AF"/>
  <rect x="112" y="758" width="840" height="10" rx="5" fill="#E5E7EB"/>
  <rect x="112" y="786" width="840" height="10" rx="5" fill="#E5E7EB"/>
  <rect x="1044" y="644" width="468" height="270" rx="10" fill="#FBFCFD" stroke="#E6E8EB"/>
  <rect x="1068" y="672" width="220" height="14" rx="7" fill="#111827"/>
  <rect x="1068" y="706" width="420" height="1" fill="#E6E8EB"/>
  <rect x="1068" y="732" width="120" height="10" rx="5" fill="#9CA3AF"/>
  <rect x="1068" y="760" width="388" height="10" rx="5" fill="#E5E7EB"/>
  <rect x="1068" y="788" width="388" height="10" rx="5" fill="#E5E7EB"/>
  <rect x="1288" y="848" width="200" height="38" rx="10" fill="#3F5F7A"/>
</svg>
